# xmcd
#
# Track frame offsets:
#	150
#	18685
#	39735
#	55665
#	71075
#	85500
#	99965
#	116300
#	130740
#	145855
#	161220
#	174520
#
# Disc length: 2562
#
# Revision: 1
# Processed by: cddbd v1.5.1PL0 Copyright (c) Steve Scherf et al.
# Submitted via: audiograbber 1.81.02
# Normalized: r0:TRMNUM
#
DISCID=9a0a000c
DTITLE=Hank Williams III - Live In Scotland
DYEAR=2002
DGENRE=Country
TTITLE0=Wine Spodeodee
TTITLE1=Whay Don't Ya Leave Me Alone?
TTITLE2=Cocaine Blues
TTITLE3=I Don't Know
TTITLE4=On My Own
TTITLE5=Mississippi Mud
TTITLE6=The Sun Comes Up
TTITLE7=Long Gone Lonesome Blues
TTITLE8=Ramblin Man
TTITLE9=Move It On Over
TTITLE10=If The Shoe Fits
TTITLE11=Trashville
EXTD=
EXTT0=
EXTT1=
EXTT2=
EXTT3=
EXTT4=
EXTT5=
EXTT6=
EXTT7=
EXTT8=
EXTT9=
EXTT10=
EXTT11=
PLAYORDER=
